<?xml version="1.0" encoding="UTF-8" standalone="no"?>
<svg width="28px" height="28px" viewBox="0 0 28 28" version="1.1" xmlns="http://www.w3.org/2000/svg" xmlns:xlink="http://www.w3.org/1999/xlink">
    <!-- Generator: Sketch 41.1 (35376) - http://www.bohemiancoding.com/sketch -->
    <title>Group 10</title>
    <desc>Created with Sketch.</desc>
    <defs></defs>
    <g id="Page-1" stroke="none" stroke-width="1" fill="none" fill-rule="evenodd" stroke-linecap="round" stroke-linejoin="round">
        <g id="D.zenwrite_homepage" transform="translate(-346.000000, -1295.000000)">
            <g id="#5" transform="translate(260.000000, 1112.000000)">
                <g id="Group-2-Copy-3" transform="translate(0.000000, 184.000000)">
                    <g id="Group-3" transform="translate(87.000000, 0.000000)">
                        <g id="Group-10">
                            <g id="Group-7" transform="translate(7.000000, 12.000000)" stroke="#90B3F9" stroke-width="2.5">
                                <path d="M0.142857143,0 L3.54088193,0" id="Stroke-86"></path>
                                <path d="M8.13298107,0 L11.5310059,0" id="Stroke-87"></path>
                                <path d="M0.142857143,6 L3.54088193,6" id="Stroke-88"></path>
                                <path d="M8.13298107,6 L11.5310059,6" id="Stroke-89"></path>
                            </g>
                            <g id="Group-8" transform="translate(0.500000, 0.000000)" stroke="#007EE6" stroke-width="2">
                                <path d="M5.35714286,7.44189897 L5.35714286,0.303698185" id="Stroke-90"></path>
                                <path d="M19.6428571,7.44189897 L19.6428571,0.303698185" id="Stroke-91"></path>
                                <path d="M23.2142857,25.2874009 L1.78571429,25.2874009 C0.798214286,25.2874009 0,24.4879224 0,23.5028507 L0,5.65734877 C0,4.67227706 0.798214286,3.87279858 1.78571429,3.87279858 L23.2142857,3.87279858 C24.2017857,3.87279858 25,4.67227706 25,5.65734877 L25,23.5028507 C25,24.4879224 24.2017857,25.2874009 23.2142857,25.2874009 Z" id="Stroke-92"></path>
                            </g>
                        </g>
                    </g>
                </g>
            </g>
        </g>
    </g>
</svg>