<?xml version="1.0" encoding="UTF-8" standalone="no"?>
<svg width="26px" height="31px" viewBox="0 0 26 31" version="1.1" xmlns="http://www.w3.org/2000/svg" xmlns:xlink="http://www.w3.org/1999/xlink">
    <!-- Generator: Sketch 41.1 (35376) - http://www.bohemiancoding.com/sketch -->
    <title>Group 20</title>
    <desc>Created with Sketch.</desc>
    <defs></defs>
    <g id="Page-1" stroke="none" stroke-width="1" fill="none" fill-rule="evenodd" stroke-linecap="round" stroke-linejoin="round">
        <g id="D.zenwrite_homepage" transform="translate(-826.000000, -1112.000000)">
            <g id="#5" transform="translate(260.000000, 1112.000000)">
                <g id="Group-2-Copy" transform="translate(480.000000, 1.000000)">
                    <g id="Group-20" transform="translate(87.000000, 0.000000)">
                        <path d="M6.5,19 L13,19" id="Stroke-120" stroke="#90B3F9" stroke-width="2.5"></path>
                        <path d="M17.3333333,28.5838041 L2.16666667,28.5838041 C0.9685,28.5838041 0,27.6137702 0,26.4185499 L0,6.93126177 C0,5.73604143 0.9685,4.76600753 2.16666667,4.76600753 L17.3333333,4.76600753 C18.5315,4.76600753 19.5,5.73604143 19.5,6.93126177 L19.5,26.4185499 C19.5,27.6137702 18.5315,28.5838041 17.3333333,28.5838041 Z" id="Stroke-121" stroke="#007EE6" stroke-width="2"></path>
                        <path d="M6.5,13 L13,13" id="Stroke-122" stroke="#90B3F9" stroke-width="2.5"></path>
                        <path d="M4.5,0.270244821 L21.8333333,0.270244821 C23.0315,0.270244821 24,1.24027872 24,2.43549906 L24,24.0880414" id="Stroke-123" stroke="#007EE6" stroke-width="2"></path>
                    </g>
                </g>
            </g>
        </g>
    </g>
</svg>