<?xml version="1.0" encoding="UTF-8" standalone="no"?>
<svg width="140px" height="33px" viewBox="0 0 140 33" version="1.1" xmlns="http://www.w3.org/2000/svg" xmlns:xlink="http://www.w3.org/1999/xlink">
    <!-- Generator: Sketch 41.1 (35376) - http://www.bohemiancoding.com/sketch -->
    <title>Group</title>
    <desc>Created with Sketch.</desc>
    <defs></defs>
    <g id="Page-1" stroke="none" stroke-width="1" fill="none" fill-rule="evenodd">
        <g id="Group">
            <g id="Group-3">
                <rect id="Rectangle" fill="#007EE6" x="0" y="0" width="33" height="33" rx="4"></rect>
                <polygon id="z" fill="#FFFFFF" points="15.9563839 19.7616964 22.2411161 13.2383036 22.2411161 9.60535714 11.0240625 9.60535714 11.0240625 13.2383036 17.0436161 13.2383036 10.7588839 19.7616964 10.7588839 23.3946429 22.2411161 23.3946429 22.2411161 19.7616964"></polygon>
            </g>
            <path d="M54.896,23.216 L45.656,23.216 L54.8,11.672 L54.8,9.2 L42.224,9.2 L42.224,11.984 L51.056,11.984 L41.96,23.528 L41.96,26 L54.896,26 L54.896,23.216 Z M68.456,20.12 C68.456,15.248 65.696,13.4 62.624,13.4 C59.696,13.4 56.552,15.248 56.552,19.808 C56.552,24.344 59.696,26.168 62.6,26.168 C65.48,26.168 67.304,25.04 68.096,22.64 L65.384,22.64 C64.928,23.456 64.136,23.864 62.768,23.864 C60.896,23.864 59.744,22.952 59.504,20.744 L68.432,20.744 C68.456,20.528 68.456,20.336 68.456,20.12 Z M59.504,18.824 C59.768,16.736 60.92,15.704 62.624,15.704 C64.424,15.704 65.48,16.88 65.528,18.824 L59.504,18.824 Z M77.624,13.4 C75.2,13.4 73.832,15.224 73.496,16.112 L73.496,13.52 L70.424,13.52 L70.424,26 L73.496,26 L73.496,18.536 C73.64,17.624 74.576,15.944 76.496,15.944 C77.936,15.944 78.992,16.664 78.992,18.632 L78.992,26 L82.064,26 L82.064,18.464 C82.064,14.696 80.144,13.4 77.624,13.4 Z M102.368,13.52 L99.272,13.52 L97.064,22.136 L94.28,13.52 L91.856,13.52 L89.072,22.136 L86.888,13.52 L83.792,13.52 L87.344,26 L90.032,26 L93.08,17.168 L96.128,26 L98.792,26 L102.368,13.52 Z M111.032,13.4 C108.848,13.4 107.552,14.648 107.168,16.304 L107.168,13.52 L104.096,13.52 L104.096,26 L107.168,26 L107.168,19.16 C107.48,17.336 108.704,16.16 111.272,16.16 C111.416,16.16 111.608,16.16 112.04,16.184 L112.04,13.472 C111.608,13.4 111.296,13.4 111.032,13.4 Z M113.912,8.984 L113.912,11.408 L116.984,11.408 L116.984,8.984 L113.912,8.984 Z M113.912,13.52 L113.912,26 L116.984,26 L116.984,13.52 L113.912,13.52 Z M125,23.744 C123.992,23.744 123.68,23.264 123.68,22.52 L123.68,15.944 L126.176,15.944 L126.176,13.52 L123.68,13.52 L123.68,10.4 L120.608,10.4 L120.608,13.52 L118.592,13.52 L118.592,15.944 L120.608,15.944 L120.608,22.856 C120.608,25.568 122.144,26.144 124.136,26.144 C125,26.144 125.768,26 126.296,25.808 L126.296,23.576 C125.768,23.696 125.36,23.744 125,23.744 Z M139.592,20.12 C139.592,15.248 136.832,13.4 133.76,13.4 C130.832,13.4 127.688,15.248 127.688,19.808 C127.688,24.344 130.832,26.168 133.736,26.168 C136.616,26.168 138.44,25.04 139.232,22.64 L136.52,22.64 C136.064,23.456 135.272,23.864 133.904,23.864 C132.032,23.864 130.88,22.952 130.64,20.744 L139.568,20.744 C139.592,20.528 139.592,20.336 139.592,20.12 Z M130.64,18.824 C130.904,16.736 132.056,15.704 133.76,15.704 C135.56,15.704 136.616,16.88 136.664,18.824 L130.64,18.824 Z" id="Zenwrite" fill="#007EE6"></path>
        </g>
    </g>
</svg>